<?xml version="1.0" encoding="UTF-8"?>
<svg xmlns="http://www.w3.org/2000/svg" viewBox="0 0 1200 630" role="img" aria-labelledby="title desc">
  <title id="title">ADHD-test</title>
  <desc id="desc">Et speil på hverdagsfungering</desc>
  <defs>
    <linearGradient id="bg" x1="0" y1="0" x2="1" y2="1">
      <stop offset="0%" stop-color="#76E9D9"/>
      <stop offset="100%" stop-color="#1a5c54"/>
    </linearGradient>
    <linearGradient id="panel" x1="0" y1="0" x2="1" y2="1">
      <stop offset="0%" stop-color="#ffffff" stop-opacity="0.18"/>
      <stop offset="100%" stop-color="#ffffff" stop-opacity="0.08"/>
    </linearGradient>
    <linearGradient id="accent" x1="0" y1="0" x2="1" y2="1">
      <stop offset="0%" stop-color="#ffffff"/>
      <stop offset="100%" stop-color="#bff7ee"/>
    </linearGradient>
  </defs>
  <rect width="1200" height="630" fill="url(#bg)"/>
  <circle cx="1040" cy="100" r="210" fill="#ffffff" opacity="0.14"/>
  <circle cx="960" cy="544" r="270" fill="#bff7ee" opacity="0.12"/>
  <path d="M0 470 C180 410, 330 540, 520 486 S900 400, 1200 500 L1200 630 L0 630 Z" fill="rgba(255,255,255,0.05)"/>
  <path d="M0 120 C160 30, 300 46, 432 92" fill="none" stroke="rgba(255,255,255,0.18)" stroke-width="2" stroke-linecap="round"/>
  <g transform="translate(72,78)">
    <rect x="0" y="0" width="472" height="474" rx="34" fill="url(#panel)" stroke="rgba(255,255,255,0.18)"/>
    <rect x="28" y="28" width="188" height="34" rx="17" fill="rgba(255,255,255,0.11)" stroke="rgba(255,255,255,0.18)"/>
    <text x="122" y="51" text-anchor="middle" fill="#effffb" font-size="14" font-weight="800" letter-spacing="1.4">SELVRAPPORT</text>
    <text x="28" y="132" fill="#f7fffd" font-size="70" font-weight="900" letter-spacing="-1.6">ADHD-test</text>
    <text x="28" y="196" fill="#ecfffb" font-size="28" font-weight="700">Et speil på hverdagsfungering</text>
    <text x="28" y="248" fill="rgba(247,255,253,0.78)" font-size="17" font-weight="500">Nok struktur til å være nyttig.</text>
    <text x="28" y="274" fill="rgba(247,255,253,0.78)" font-size="17" font-weight="500">Litt mer ro til å lese det som faktisk betyr noe.</text>
    <g transform="translate(28,346)">
      <g transform="translate(28,0)"><rect x="0" y="0" rx="16" width="114" height="32" fill="rgba(255,255,255,0.09)" stroke="rgba(255,255,255,0.16)"/><text x="57" y="21" text-anchor="middle" fill="#f7fffd" font-size="14" font-weight="700" letter-spacing="0.2">Selvrapport</text></g>
      <g transform="translate(154,0)"><rect x="0" y="0" rx="16" width="114" height="32" fill="rgba(255,255,255,0.09)" stroke="rgba(255,255,255,0.16)"/><text x="57" y="21" text-anchor="middle" fill="#f7fffd" font-size="14" font-weight="700" letter-spacing="0.2">Ikke diagnose</text></g>
      <g transform="translate(280,0)"><rect x="0" y="0" rx="16" width="114" height="32" fill="rgba(255,255,255,0.09)" stroke="rgba(255,255,255,0.16)"/><text x="57" y="21" text-anchor="middle" fill="#f7fffd" font-size="14" font-weight="700" letter-spacing="0.2">Hverdag</text></g>
    </g>
  </g>
  <g transform="translate(654,96)">
    <rect x="0" y="0" width="474" height="438" rx="38" fill="rgba(255,255,255,0.08)" stroke="rgba(255,255,255,0.17)"/>
    <rect x="24" y="24" width="124" height="30" rx="15" fill="rgba(255,255,255,0.10)" stroke="rgba(255,255,255,0.18)"/>
    <text x="86" y="44" text-anchor="middle" fill="#effffb" font-size="13" font-weight="800" letter-spacing="0.9">Shiny app</text>
    <g transform="translate(68,86)">
    <rect x="0" y="0" width="358" height="296" rx="28" fill="rgba(255,255,255,0.06)" stroke="rgba(255,255,255,0.14)"/>
    <text x="24" y="40" fill="#f7fffd" font-size="20" font-weight="800">Sjekkliste</text>
    <g transform="translate(32,68)">
      <rect x="0" y="0" width="198" height="178" rx="22" fill="rgba(255,255,255,0.08)" stroke="rgba(255,255,255,0.14)"/>
      <rect x="22" y="24" width="28" height="28" rx="8" fill="none" stroke="#f7fffd" stroke-width="4"/>
      <path d="M28 38 L34 44 L44 28" fill="none" stroke="#f7fffd" stroke-width="4" stroke-linecap="round" stroke-linejoin="round"/>
      <rect x="68" y="28" width="92" height="6" rx="3" fill="#f7fffd" opacity="0.8"/>
      <rect x="22" y="74" width="28" height="28" rx="8" fill="none" stroke="#f7fffd" stroke-width="4"/>
      <rect x="68" y="78" width="112" height="6" rx="3" fill="#f7fffd" opacity="0.55"/>
      <rect x="22" y="124" width="28" height="28" rx="8" fill="none" stroke="#f7fffd" stroke-width="4"/>
      <rect x="68" y="128" width="84" height="6" rx="3" fill="#f7fffd" opacity="0.35"/>
    </g>
    <circle cx="286" cy="90" r="58" fill="rgba(255,255,255,0.14)" stroke="#f7fffd" stroke-width="5"/>
    <circle cx="286" cy="90" r="26" fill="none" stroke="#1a5c54" stroke-width="8"/>
    <circle cx="286" cy="90" r="6" fill="#1a5c54"/>
    <rect x="238" y="182" width="104" height="66" rx="18" fill="rgba(255,255,255,0.08)" stroke="rgba(255,255,255,0.15)"/>
    <text x="290" y="211" text-anchor="middle" fill="#f7fffd" font-size="17" font-weight="800">Rolig</text>
    <text x="290" y="233" text-anchor="middle" fill="rgba(247,255,253,0.78)" font-size="14">og tydelig</text>
  </g>
  </g>
</svg>